{"title":"After Earth 2013 DVDrip English Klam","uid":11511882,"size":1670300034,"categoryP":"video","categoryS":"movies","magnet":"?xt=urn:btih:b328282e3e3ce16bd936da3e73e9c75634d7141e&amp;dn=After+Earth+2013+DVDrip+English+Klam&amp;tr=udp%3A%2F%2Ftracker.openbittorrent.com%3A80&amp;tr=udp%3A%2F%2Fopen.demonii.com%3A1337&amp;tr=udp%3A%2F%2Ftracker.coppersurfer.tk%3A6969&amp;tr=udp%3A%2F%2Fexodus.desync.com%3A6969","seeders":4,"leechers":2,"uploader":"Klambake","files":-1,"time":1416408539,"description":"With: Jaden Smith, Will Smith and Sophie Okonedo\n\nDuizend jaar nadat catastrofale gebeurtenissen de mens gedwongen hebben om de Aarde te verlaten is Nova Prime de nieuwe thuishaven van de mensheid geworden. De legendarische generaal Cypher Raige keert terug naar huis na een lang dienst. Hij is vervreemd geraakt van zijn gezin, maar is klaar om zijn vaderrol voor zijn dertienjarige zoon Kitai op zich te nemen. Wanneer een asteroidestorm het vaartuig van Cypher en Kitai beschadigt, maken ze een noodlanding op de voor hen onbekende en gevaarlijke Aarde.\n\nA crash landing leaves Kitai Raige and his father Cypher stranded on Earth, a millennium after events forced humanity's escape. With Cypher injured, Kitai must embark on a perilous journey to signal for help.\n &lt;a href=&quot;\nhttp://www.imdb.com/title/tt1815862&quot; rel=&quot;nofollow&quot; target=&quot;_NEW&quot;&gt;\nhttp://www.imdb.com/title/tt1815862&lt;/a&gt;\t\n\n--------------------- Dutch Friends 4ever ---------------------\n---------------------------------------------------------------\n- Bezoek ook eens mijn vrienden op: &lt;a href=&quot; http://www.Film-Test.nl&quot; rel=&quot;nofollow&quot; target=&quot;_NEW&quot;&gt; http://www.Film-Test.nl&lt;/a&gt; --\n----- voor mijn Nederlandse Sync. ondertitels ---- en meer ----\n------- http://www.Film-Test.nl ---- Over Films en meer -------\n---------------------------------------------------------------\n &lt;a href=&quot;\nhttp://i.imgur.com/IAvcoCM.jpg&quot; rel=&quot;nofollow&quot; target=&quot;_NEW&quot;&gt;\nhttp://i.imgur.com/IAvcoCM.jpg&lt;/a&gt; &lt;a href=&quot;\nhttp://i.imgur.com/3GCmtef.jpg&quot; rel=&quot;nofollow&quot; target=&quot;_NEW&quot;&gt;\nhttp://i.imgur.com/3GCmtef.jpg&lt;/a&gt; &lt;a href=&quot;\nhttp://i.imgur.com/Totgfow.jpg&quot; rel=&quot;nofollow&quot; target=&quot;_NEW&quot;&gt;\nhttp://i.imgur.com/Totgfow.jpg&lt;/a&gt;\n\nGeneral:\n\nComplete name                            : After EarthAfter Earth.avi\nFormat                                   : AVI\nFormat/Info                              : Audio Video Interleave\nFile size                                : 1.56 GiB\nDuration                                 : 1h 40mn\nOverall bit rate                         : 2 224 Kbps\n\nVideo:\n\nFormat                                   : MPEG-4 Visual\nFormat profile                           : Simple@L3\nFormat settings, BVOP                    : No\nFormat settings, QPel                    : No\nFormat settings, GMC                     : No warppoints\nFormat settings, Matrix                  : Default (H.263)\nCodec ID                                 : XVID\nCodec ID/Hint                            : XviD\nDuration                                 : 1h 40mn\nSource duration                          : 1h 40mn\nBit rate                                 : 1 765 Kbps\nWidth                                    : 720 pixels\nHeight                                   : 304 pixels\nDisplay aspect ratio                     : 2.35:1\nFrame rate                               : 23.976 fps\nColor space                              : YUV\nChroma subsampling                       : 4:2:0\nBit depth                                : 8 bits\nScan type                                : Progressive\nCompression mode                         : Lossy\nBits/(Pixel*Frame)                       : 0.336\nStream size                              : 1.23 GiB (79%)\nWriting library                          : XviD 1.1.2 (UTC 2006-11-01)\n\nAudio:\n\nFormat                                   : AC-3\nFormat/Info                              : Audio Coding 3\nMode extension                           : CM (complete main)\nFormat settings, Endianness              : Big\nCodec ID                                 : 2000\nDuration                                 : 1h 40mn\nBit rate mode                            : Constant\nBit rate                                 : 448 Kbps\nChannel(s)                               : 6 channels\nChannel positions                        : Front: L C R, Side: L R, LFE\nSampling rate                            : 48.0 KHz\nBit depth                                : 16 bits\nCompression mode                         : Lossy\nStream size                              : 321 MiB (20%)\nAlignment                                : Aligned on interleaves\nInterleave, duration                     : 32 ms (0.77 video frame)\nInterleave, preload duration             : 256 ms","torrent":{"xt":"urn:btih:b328282e3e3ce16bd936da3e73e9c75634d7141e","amp;dn":"After+Earth+2013+DVDrip+English+Klam","amp;tr":["udp%3A%2F%2Ftracker.openbittorrent.com%3A80","udp%3A%2F%2Fopen.demonii.com%3A1337","udp%3A%2F%2Ftracker.coppersurfer.tk%3A6969","udp%3A%2F%2Fexodus.desync.com%3A6969"],"infoHash":"b328282e3e3ce16bd936da3e73e9c75634d7141e","infoHashBuffer":{"type":"Buffer","data":[179,40,40,46,62,60,225,107,217,54,218,62,115,233,199,86,52,215,20,30]},"announce":[],"urlList":[]}}